<?xml version="1.0" encoding="utf-8"?>
<!-- Generator: Adobe Illustrator 27.9.4, SVG Export Plug-In . SVG Version: 9.03 Build 54784)  -->
<svg version="1.1" id="_레이어_34" xmlns="http://www.w3.org/2000/svg" xmlns:xlink="http://www.w3.org/1999/xlink" x="0px"
	 y="0px" viewBox="0 0 295.3 37.7" style="enable-background:new 0 0 295.3 37.7;" xml:space="preserve">
<style type="text/css">
	.st0{fill:#E75351;}
	.st1{fill:#B2B2B2;}
	.st2{clip-path:url(#SVGID_00000088845936906212121660000004923832216657955000_);}
	.st3{fill:#5975D5;}
	.st4{fill:#7BC13E;}
	.st5{fill:#7ED041;}
</style>
<ellipse class="st0" cx="27.6" cy="33.4" rx="3.5" ry="3.5"/>
<g>
	<path class="st1" d="M53.5,1.8c-1.3,0-2.4,1.1-2.4,2.4v19.5c0,2.5-0.6,4.4-1.9,5.8s-3,2-5.3,2s-4-0.7-5.3-2s-1.9-3.3-1.9-5.8V4.2
		c0-1.3-1.1-2.4-2.4-2.4s-2.4,1.1-2.4,2.4v19.3c0,2.7,0.5,4.9,1.4,6.8c0.9,1.9,2.3,3.3,4.1,4.3s3.9,1.5,6.5,1.5s4.7-0.5,6.5-1.5
		s3.2-2.4,4.1-4.3c0.9-1.9,1.4-4.2,1.4-6.8V4.2C55.9,2.9,54.8,1.8,53.5,1.8L53.5,1.8z"/>
	<path class="st1" d="M74.1,3.8c-0.4-1.2-1.5-1.9-2.7-1.9s-2.3,0.8-2.7,1.9L57.9,32.6c-0.6,1.6,0.6,3.2,2.2,3.2c1,0,1.9-0.7,2.3-1.6
		l2-5.8h13.8l2,5.8c0.3,1,1.2,1.6,2.3,1.6c1.7,0,2.8-1.7,2.2-3.2L74.1,3.8L74.1,3.8z M66,23.9l5.3-15.5l5.3,15.4H66V23.9z"/>
	<path class="st1" d="M111.5,1.8c-1.3,0-2.4,1.1-2.4,2.4v23.1L93.8,3.1c-0.5-0.8-1.4-1.3-2.4-1.3c-1.5,0-2.8,1.2-2.8,2.8v28.9
		c0,1.3,1.1,2.4,2.4,2.4s2.4-1.1,2.4-2.4V10.8l15.2,23.7c0.5,0.8,1.4,1.3,2.4,1.3c1.6,0,2.8-1.3,2.8-2.8V4.2
		C113.9,2.9,112.8,1.8,111.5,1.8L111.5,1.8z"/>
	<path class="st1" d="M138.8,1.8h-19.5c-1.3,0-2.3,1-2.3,2.3s1,2.3,2.3,2.3h7.4v27.1c0,1.3,1.1,2.4,2.4,2.4s2.4-1.1,2.4-2.4V6.4h7.4
		c1.3,0,2.3-1,2.3-2.3S140.1,1.8,138.8,1.8z"/>
	<path class="st1" d="M165.6,1.8c-1.3,0-2.4,1.1-2.4,2.4v19.5c0,2.5-0.6,4.4-1.9,5.8s-3,2-5.3,2s-4-0.7-5.3-2s-1.9-3.3-1.9-5.8V4.2
		c0-1.3-1.1-2.4-2.4-2.4l0,0c-1.3,0-2.4,1.1-2.4,2.4v19.3c0,2.7,0.5,4.9,1.4,6.8s2.3,3.3,4.1,4.3s3.9,1.5,6.5,1.5s4.7-0.5,6.5-1.5
		s3.2-2.4,4.1-4.3c0.9-1.9,1.4-4.2,1.4-6.8V4.2C168,2.9,166.9,1.8,165.6,1.8L165.6,1.8z"/>
	<path class="st1" d="M199.3,1.8c-1.1,0-2,0.6-2.5,1.6l-9.3,20.8l-9.2-20.7c-0.4-1-1.4-1.6-2.5-1.6c-1.5,0-2.7,1.2-2.7,2.7v29
		c0,1.3,1,2.3,2.3,2.3s2.3-1,2.3-2.3V12.9l7.5,16.8c0.4,0.9,1.3,1.5,2.3,1.5s1.9-0.6,2.3-1.5l7.5-17.2v21c0,1.3,1,2.3,2.3,2.3
		s2.3-1,2.3-2.3v-29C202,3.1,200.8,1.8,199.3,1.8L199.3,1.8z"/>
	<g>
		<g>
			<defs>
				<path id="SVGID_1_" d="M7.7,34.6c-1.8-1-3.3-2.5-4.3-4.4c-1-1.9-1.5-4.1-1.5-6.6V14c0-2.5,0.6-4.6,1.6-6.5s2.4-3.3,4.3-4.4
					c1.8-1,4-1.6,6.4-1.6s4.5,0.5,6.4,1.6c1.8,1,3.3,2.5,4.3,4.4s1.4,4,1.4,6.5v9.6c0,2.5-0.5,4.7-1.5,6.6c-1,1.9-2.5,3.3-4.3,4.4
					c-1.8,1-4,1.6-6.4,1.6S9.6,35.6,7.7,34.6z"/>
			</defs>
			<clipPath id="SVGID_00000051370928222878343460000015062064738149648278_">
				<use xlink:href="#SVGID_1_"  style="overflow:visible;"/>
			</clipPath>
			<g style="clip-path:url(#SVGID_00000051370928222878343460000015062064738149648278_);">
				<path class="st0" d="M16,1C5,1-3.8,9.9-3.8,20.8S5.1,40.6,16,40.6s19.8-8.9,19.8-19.8S27,1,16,1z M21.5,24.5
					c0,3.7-3,6.6-6.7,6.6h-1.6c-3.7,0-6.7-3-6.7-6.6V13.1c0-3.7,3-6.6,6.7-6.6h1.6c3.7,0,6.7,3,6.7,6.6V24.5z"/>
				<path class="st1" d="M14.8,31.1h-1.6c-3.7,0-6.7-3-6.7-6.6v-6.8c-5.5,1.7-12,6.2-17.6,12.8c-9.5,11.1-12.9,23.9-7.5,28.4
					S-1.2,58.2,8.3,47c4.7-5.5,7.9-11.4,9.3-16.5C16.7,30.9,15.8,31.1,14.8,31.1L14.8,31.1z"/>
				<path class="st3" d="M6.5,24.5V13.1c0-3.7,3-6.6,6.7-6.6h1.6c0.7,0,1.4,0.1,2.1,0.3c-1-2.4-2.3-4.9-3.9-7.3
					C6.2-10.7-3.9-16-9.5-12.3C-15-8.6-14,2.7-7.1,12.9c4,5.9,9,10.1,13.7,11.9C6.6,24.8,6.5,24.6,6.5,24.5L6.5,24.5z"/>
				<path class="st4" d="M31.6-6.4C28.3-9.2,20.4-5.6,14,1.7c-1.6,1.8-3,3.7-4.1,5.6c1-0.5,2.1-0.9,3.3-0.9h1.6c3.7,0,6.7,3,6.7,6.6
					v3.2c1.5-1.2,2.9-2.6,4.3-4.2C32.2,4.7,34.8-3.5,31.6-6.4L31.6-6.4z"/>
			</g>
		</g>
	</g>
	<path class="st0" d="M289.3,15.2c-1-0.5-2.2-0.8-3.5-0.8h-9c-0.5,0-0.9-0.4-0.9-0.9v-2.7c0-0.5,0.4-0.9,0.9-0.9h9
		c4.1,0,7.4-3.2,7.4-7.2l0,0h-18.5c-3.4,0-6.2,2.6-6.4,5.9v7c0.1,2.5,1.8,4.7,4.1,5.5c1,0.5,2.2,0.8,3.5,0.8h9
		c0.5,0,0.9,0.4,0.9,0.9v3.5c0,0.5-0.4,0.9-0.9,0.9h-9c-4.1,0-7.4,3.2-7.4,7.2H287c3.4,0,6.2-2.7,6.4-5.9v-7.8
		C293.3,18.2,291.7,16.1,289.3,15.2L289.3,15.2z"/>
	<path class="st5" d="M261.2,27.6c0.9-1.5,1.3-3.2,1.3-4.9c0-0.3,0-0.7-0.1-1.4h-5.6l-1.1-1.7c2.9-1.4,5-4.3,5-7.7
		c0-4.7-3.9-8.5-8.7-8.5s-8.7,3.8-8.7,8.5c0,2.2,0.9,4.2,2.3,5.8c-2.6,2.1-3.9,4.6-3.9,7.5c0,2.6,1,4.8,2.8,6.6
		c1.9,1.8,4.2,2.7,6.9,2.7c1.9,0,3.6-0.6,5.3-1.8l0.9,1h7.8L261.2,27.6L261.2,27.6z M250.9,27.4c-0.6,0-1.2-0.2-1.6-0.7
		c-0.4-0.5-0.7-1-0.7-1.7s0.4-1.3,1.1-1.8l2.7,3.6C251.8,27.2,251.3,27.4,250.9,27.4L250.9,27.4z M251.9,13.6
		c-0.9,0-1.7-0.7-1.7-1.6s0.8-1.6,1.7-1.6s1.7,0.7,1.7,1.6S252.9,13.6,251.9,13.6z"/>
	<path class="st3" d="M219.4,2.8c-3.4,0-6.2,2.6-6.4,5.9v19.9c0.2,3.3,2.9,5.9,6.4,5.9h18.5l0,0c0-4-3.3-7.2-7.4-7.2h-9
		c-0.5,0-0.9-0.4-0.9-0.9V10.9c0-0.5,0.4-0.9,0.9-0.9h9c4.1,0,7.4-3.2,7.4-7.2l0,0L219.4,2.8L219.4,2.8z"/>
</g>
</svg>
